<?xml version="1.0" encoding="UTF-8"?>
<svg width="127.16mm" height="120.81mm" version="1.1" viewBox="0 0 127.16 120.81" xmlns="http://www.w3.org/2000/svg">
<g transform="translate(-50 -74.194)" fill="#c9d0ed" stroke-width="11.339">
<g transform="matrix(1.9902 0 0 2.0108 -534.57 -890.6)" style="shape-inside:url(#rect14937);white-space:pre" aria-label="S">
<path d="m309 539.89q-2.08 0-4.16-0.32-2-0.24-3.92-0.96-1.84-0.72-3.36-1.92-1.52-1.28-2.48-2.96-0.88-1.76-1.2-3.76-0.32-2.08 0-4.16 0.08-0.16 0.08-0.32t0.08-0.4h10.96q0 0.08-0.08 0.16 0 0.08 0 0.08-0.16 1.04-0.08 2.08 0.16 1.04 0.72 1.84t1.44 1.2q0.96 0.32 2 0.32 1.2 0 2.32-0.4 1.2-0.48 2.08-1.36 0.96-0.88 1.44-2t0.72-2.32q0.24-1.6-0.08-3.12-0.32-1.6-1.12-2.88t-1.84-2.32q-1.04-1.12-2.16-2.08t-2.24-1.92q-1.12-1.04-2.16-2.16-0.96-1.12-1.92-2.24-0.88-1.2-1.68-2.48-0.72-1.36-1.28-2.72-0.56-1.44-0.88-2.96-0.32-1.6-0.4-3.12 0-1.6 0.24-3.2 0.32-1.92 1.04-3.68 0.8-1.84 1.92-3.44 1.2-1.68 2.8-2.96 1.6-1.36 3.44-2.16t3.68-1.12q1.92-0.32 3.84-0.32 2 0 4 0.32 2 0.24 3.76 0.96 1.84 0.72 3.28 2 1.44 1.2 2.32 2.88 0.96 1.68 1.2 3.68t-0.08 4q0 0.24-0.08 0.4 0 0.16 0 0.32h-10.96q0-0.08 0-0.08 0-0.08 0-0.16 0.16-0.96 0.08-1.84-0.08-0.96-0.56-1.76-0.4-0.8-1.2-1.2t-1.76-0.4q-1.12 0-2.24 0.48-1.04 0.48-1.84 1.44-0.72 0.88-1.2 2-0.4 1.04-0.64 2.16-0.24 1.6 0.08 3.12t1.04 2.88q0.8 1.28 1.84 2.4 1.04 1.04 2.16 2 1.2 0.96 2.24 2 1.12 0.96 2.16 2.08 1.04 1.04 1.92 2.24 0.96 1.2 1.68 2.48 0.8 1.28 1.36 2.72t0.88 2.96 0.32 3.12q0.08 1.52-0.16 3.12-0.32 2-1.12 3.92-0.8 1.84-2.08 3.52-1.2 1.6-2.88 2.88t-3.6 2.08q-1.84 0.8-3.84 1.04-1.92 0.32-3.84 0.32z"/>
</g>
<g transform="matrix(1.9823 0 0 2.0028 -479.63 -886.28)" fill-opacity=".5" style="shape-inside:url(#rect25319);white-space:pre" aria-label="0">
<path d="m309 539.89q-2.4 0-4.72-0.48-2.24-0.48-4.16-1.68t-3.2-3.04-1.92-4q-0.64-2.24-0.64-4.64 0.08-2.4 0.48-4.8l4.4-26.8q0.4-2 1.04-3.92 0.72-2 1.92-3.76 1.2-1.84 2.88-3.2 1.76-1.44 3.68-2.24 2-0.88 4-1.28 2-0.48 4.08-0.48 2.4 0 4.64 0.64 2.24 0.56 4.16 1.76t3.2 3.04q1.36 1.84 1.92 4.08 0.64 2.16 0.56 4.56 0 2.4-0.4 4.8l-4.4 26.8q-0.32 2-1.04 4-0.72 1.92-1.92 3.68t-2.88 3.2q-1.68 1.36-3.68 2.24-1.92 0.88-4 1.2-2 0.32-4 0.32zm-1.2-30.4 11.6-8.08 0.72-4.48q0.16-0.88 0.24-1.76t0-1.76-0.32-1.68q-0.16-0.88-0.64-1.52t-1.28-0.96-1.68-0.32q-1.28 0-2.48 0.64t-2 1.68-1.28 2.32q-0.4 1.2-0.64 2.4zm1.44 21.28q1.28 0 2.48-0.56 1.2-0.64 2-1.68 0.88-1.04 1.28-2.24 0.48-1.28 0.72-2.56l2.24-13.52-11.6 8.08-0.72 4.48q-0.16 0.88-0.24 1.76t0 1.76q0.08 0.8 0.24 1.68 0.24 0.8 0.72 1.44t1.2 1.04q0.8 0.32 1.68 0.32z"/>
</g>
</g>
</svg>
