<?xml version="1.0" encoding="UTF-8" standalone="no"?>
<!-- Created with Inkscape (http://www.inkscape.org/) -->

<svg
   width="127.16461mm"
   height="120.8064mm"
   viewBox="0 0 127.16461 120.80642"
   version="1.1"
   id="svg5"
   inkscape:export-filename="logo.jpg"
   inkscape:export-xdpi="4.79"
   inkscape:export-ydpi="4.79"
   sodipodi:docname="logo.svg"
   inkscape:version="1.2.2 (b0a8486541, 2022-12-01)"
   inkscape:dataloss="true"
   xmlns:inkscape="http://www.inkscape.org/namespaces/inkscape"
   xmlns:sodipodi="http://sodipodi.sourceforge.net/DTD/sodipodi-0.dtd"
   xmlns="http://www.w3.org/2000/svg"
   xmlns:svg="http://www.w3.org/2000/svg">
  <sodipodi:namedview
     id="namedview7"
     pagecolor="#444451"
     bordercolor="#000000"
     borderopacity="0.25"
     inkscape:showpageshadow="2"
     inkscape:pageopacity="1"
     inkscape:pagecheckerboard="0"
     inkscape:deskcolor="#d1d1d1"
     inkscape:document-units="mm"
     showgrid="false"
     inkscape:zoom="0.84096521"
     inkscape:cx="410.24289"
     inkscape:cy="234.84919"
     inkscape:window-width="1920"
     inkscape:window-height="1052"
     inkscape:window-x="0"
     inkscape:window-y="0"
     inkscape:window-maximized="1"
     inkscape:current-layer="layer1" />
  <defs
     id="defs2">
    <rect
       x="292.52103"
       y="466.72562"
       width="245.55118"
       height="172.42093"
       id="rect14937" />
    <rect
       x="292.52103"
       y="466.72562"
       width="245.55118"
       height="172.42093"
       id="rect25319" />
  </defs>
  <g
     inkscape:label="Layer 1"
     inkscape:groupmode="layer"
     id="layer1"
     style="display:inline"
     transform="translate(-49.999998,-74.193591)">
    <g
       aria-label="S"
       transform="matrix(1.9902145,0,0,2.0107577,-534.56875,-890.59723)"
       id="text14935"
       style="font-style:italic;font-weight:900;font-size:80px;font-family:Iosevka;-inkscape-font-specification:'Iosevka, Heavy Italic';white-space:pre;shape-inside:url(#rect14937);display:inline;fill:#c9d0ed;stroke-width:11.3386">
      <path
         d="m 309.00148,539.89456 q -2.08,0 -4.16,-0.32 -2,-0.24 -3.92,-0.96 -1.84,-0.72 -3.36,-1.92 -1.52,-1.28 -2.48,-2.96 -0.88,-1.76 -1.2,-3.76 -0.32,-2.08 0,-4.16 0.08,-0.16 0.08,-0.32 0,-0.16 0.08,-0.4 h 10.96 q 0,0.08 -0.08,0.16 0,0.08 0,0.08 -0.16,1.04 -0.08,2.08 0.16,1.04 0.72,1.84 0.56,0.8 1.44,1.2 0.96,0.32 2,0.32 1.2,0 2.32,-0.4 1.2,-0.48 2.08,-1.36 0.96,-0.88 1.44,-2 0.48,-1.12 0.72,-2.32 0.24,-1.6 -0.08,-3.12 -0.32,-1.6 -1.12,-2.88 -0.8,-1.28 -1.84,-2.32 -1.04,-1.12 -2.16,-2.08 -1.12,-0.96 -2.24,-1.92 -1.12,-1.04 -2.16,-2.16 -0.96,-1.12 -1.92,-2.24 -0.88,-1.2 -1.68,-2.48 -0.72,-1.36 -1.28,-2.72 -0.56,-1.44 -0.88,-2.96 -0.32,-1.6 -0.4,-3.12 0,-1.6 0.24,-3.2 0.32,-1.92 1.04,-3.68 0.8,-1.84 1.92,-3.44 1.2,-1.68 2.8,-2.96 1.6,-1.36 3.44,-2.16 1.84,-0.8 3.68,-1.12 1.92,-0.32 3.84,-0.32 2,0 4,0.32 2,0.24 3.76,0.96 1.84,0.72 3.28,2 1.44,1.2 2.32,2.88 0.96,1.68 1.2,3.68 0.24,2 -0.08,4 0,0.24 -0.08,0.4 0,0.16 0,0.32 h -10.96 q 0,-0.08 0,-0.08 0,-0.08 0,-0.16 0.16,-0.96 0.08,-1.84 -0.08,-0.96 -0.56,-1.76 -0.4,-0.8 -1.2,-1.2 -0.8,-0.4 -1.76,-0.4 -1.12,0 -2.24,0.48 -1.04,0.48 -1.84,1.44 -0.72,0.88 -1.2,2 -0.4,1.04 -0.64,2.16 -0.24,1.6 0.08,3.12 0.32,1.52 1.04,2.88 0.8,1.28 1.84,2.4 1.04,1.04 2.16,2 1.2,0.96 2.24,2 1.12,0.96 2.16,2.08 1.04,1.04 1.92,2.24 0.96,1.2 1.68,2.48 0.8,1.28 1.36,2.72 0.56,1.44 0.88,2.96 0.32,1.52 0.32,3.12 0.08,1.52 -0.16,3.12 -0.32,2 -1.12,3.92 -0.8,1.84 -2.08,3.52 -1.2,1.6 -2.88,2.88 -1.68,1.28 -3.6,2.08 -1.84,0.8 -3.84,1.04 -1.92,0.32 -3.84,0.32 z"
         id="path29273" />
    </g>
    <g
       aria-label="0"
       transform="matrix(1.9822959,0,0,2.0027576,-479.63022,-886.27794)"
       id="text25317"
       style="font-style:oblique;font-weight:900;font-size:80px;font-family:'Iosevka Term';-inkscape-font-specification:'Iosevka Term, Heavy Oblique';white-space:pre;shape-inside:url(#rect25319);display:inline;fill:#c9d0ed;fill-opacity:0.5;stroke-width:11.3386">
      <path
         d="m 309.00148,539.89456 q -2.4,0 -4.72,-0.48 -2.24,-0.48 -4.16,-1.68 -1.92,-1.2 -3.2,-3.04 -1.28,-1.84 -1.92,-4 -0.64,-2.24 -0.64,-4.64 0.08,-2.4 0.48,-4.8 l 4.4,-26.8 q 0.4,-2 1.04,-3.92 0.72,-2 1.92,-3.76 1.2,-1.84 2.88,-3.2 1.76,-1.44 3.68,-2.24 2,-0.88 4,-1.28 2,-0.48 4.08,-0.48 2.4,0 4.64,0.64 2.24,0.56 4.16,1.76 1.92,1.2 3.2,3.04 1.36,1.84 1.92,4.08 0.64,2.16 0.56,4.56 0,2.4 -0.4,4.8 l -4.4,26.8 q -0.32,2 -1.04,4 -0.72,1.92 -1.92,3.68 -1.2,1.76 -2.88,3.2 -1.68,1.36 -3.68,2.24 -1.92,0.88 -4,1.2 -2,0.32 -4,0.32 z m -1.2,-30.4 11.6,-8.08 0.72,-4.48 q 0.16,-0.88 0.24,-1.76 0.08,-0.88 0,-1.76 -0.08,-0.88 -0.32,-1.68 -0.16,-0.88 -0.64,-1.52 -0.48,-0.64 -1.28,-0.96 -0.8,-0.32 -1.68,-0.32 -1.28,0 -2.48,0.64 -1.2,0.64 -2,1.68 -0.8,1.04 -1.28,2.32 -0.4,1.2 -0.64,2.4 z m 1.44,21.28 q 1.28,0 2.48,-0.56 1.2,-0.64 2,-1.68 0.88,-1.04 1.28,-2.24 0.48,-1.28 0.72,-2.56 l 2.24,-13.52 -11.6,8.08 -0.72,4.48 q -0.16,0.88 -0.24,1.76 -0.08,0.88 0,1.76 0.08,0.8 0.24,1.68 0.24,0.8 0.72,1.44 0.48,0.64 1.2,1.04 0.8,0.32 1.68,0.32 z"
         id="path29276" />
    </g>
  </g>
</svg>
